<svg width="101" height="100" viewBox="0 0 101 100" fill="none" xmlns="http://www.w3.org/2000/svg">
<g id="Arrow_07" clip-path="url(#clip0_1_1267)">
<g id="Group" filter="url(#filter0_d_1_1267)">
<path id="Vector" d="M28.6887 41.0342L28.5143 40.5335C29.0686 40.213 29.5441 39.9343 29.7942 39.786C29.7943 39.7859 29.7944 39.7859 29.7944 39.7858L29.9322 40.018L28.6887 41.0342ZM28.6887 41.0342C36.6153 39.8675 47.8982 41.5724 57.1422 46.2989L57.2651 46.0586M28.6887 41.0342L57.2651 46.0586M56.7036 47.155C67.2262 52.5347 75.0603 61.9092 71.6597 75.4864M56.7036 47.155L71.6597 75.4864M56.7036 47.155C46.0878 41.7274 32.7243 40.3244 25.1452 42.8287L56.7036 47.155ZM71.6597 75.4864C71.5778 75.8163 71.7785 76.151 72.1074 76.2341C72.4373 76.3161 72.772 76.1153 72.854 75.7854C76.4168 61.5594 68.2886 51.6946 57.2651 46.0586M71.6597 75.4864L71.9217 75.5515C71.9217 75.5515 71.9217 75.5517 71.9216 75.5517C71.8757 75.7372 71.9887 75.9253 72.173 75.9722C72.3586 76.0181 72.5462 75.9049 72.592 75.7203L72.5922 75.7198C74.3566 68.6745 73.2248 62.7256 70.2978 57.8395C67.3667 52.9464 62.6239 49.1016 57.1422 46.299L57.2651 46.0586M29.4395 39.192C29.8027 38.9757 30.3209 38.7056 30.9406 38.3839L30.999 38.3536C31.6018 38.0406 32.2912 37.6827 33.0058 37.2873C34.478 36.4726 36.0755 35.489 37.2662 34.3898C37.9396 33.7689 38.5128 33.0919 38.788 32.3657C39.0702 31.6212 39.0334 30.8374 38.5115 30.0508L29.4395 39.192ZM29.4395 39.192C29.4394 39.192 29.4394 39.192 29.4394 39.1921L29.3012 38.9601L29.4395 39.192ZM15.8217 36.3768L15.8217 36.3769C15.9543 36.5131 16.1728 36.5166 16.3101 36.3829L16.3102 36.3828C17.4147 35.309 20.068 33.5851 23.1795 32.0266C26.2951 30.4659 29.9136 29.0491 32.9602 28.6128L32.9603 28.6128C34.1491 28.4428 35.268 28.4086 36.2211 28.6098C37.1794 28.8122 37.985 29.2565 38.5114 30.0507L15.8217 36.3768ZM15.8217 36.3768C15.6883 36.2399 15.6912 36.0214 15.8288 35.8873L15.8217 36.3768Z" fill="black" stroke="black" stroke-width="0.539887"/>
<path id="Vector_2" d="M72.419 75.7153L72.0937 75.0214C71.953 74.7212 71.8153 74.4218 71.678 74.1235C71.2094 73.105 70.7471 72.1002 70.1964 71.1292L70.1963 71.1291C68.2994 67.7829 65.6233 64.7149 62.382 62.6482C62.2199 62.5456 62.0064 62.5935 61.9037 62.7536C61.8011 62.9158 61.8492 63.1292 62.0094 63.2319C65.1725 65.2461 67.7607 68.2355 69.594 71.4702L69.594 71.4703C70.1494 72.4507 70.6209 73.4771 71.0874 74.4927C71.3155 74.9893 71.5425 75.4833 71.7774 75.9681C71.7776 75.9684 71.7778 75.9687 71.7779 75.969L71.535 76.0868C71.5424 76.1015 71.5599 76.1392 71.584 76.1912C71.6816 76.4016 71.8878 76.8459 71.9685 76.944L72.419 75.7153ZM72.419 75.7153L72.6004 74.9707C72.8924 73.7722 73.2979 72.1224 73.3849 71.837L73.3852 71.836C74.7097 67.4349 76.604 63.4994 78.5798 59.3945C78.8314 58.8716 79.0844 58.346 79.3377 57.8164C79.4205 57.6437 79.627 57.5711 79.7979 57.653C79.9691 57.735 80.0431 57.9422 79.9611 58.1159L72.419 75.7153ZM73.0399 76.2208C72.9301 76.5448 72.8117 76.7283 72.7575 76.7848L74.0463 72.0362C74.0462 72.0362 74.0462 72.0362 74.0462 72.0362C73.9989 72.1933 73.9066 72.6208 73.7928 73.1473C73.7415 73.3847 73.6859 73.6423 73.6281 73.9042C73.4379 74.7659 73.2211 75.6911 73.0402 76.22L73.0399 76.2208Z" fill="black" stroke="black" stroke-width="0.539887"/>
</g>
</g>
<defs>
<filter id="filter0_d_1_1267" x="14.9137" y="27.5225" width="65.3509" height="51.8253" filterUnits="userSpaceOnUse" color-interpolation-filters="sRGB">
<feFlood flood-opacity="0" result="BackgroundImageFix"/>
<feColorMatrix in="SourceAlpha" type="matrix" values="0 0 0 0 0 0 0 0 0 0 0 0 0 0 0 0 0 0 127 0" result="hardAlpha"/>
<feOffset dx="-0.539887" dy="2.15955"/>
<feComposite in2="hardAlpha" operator="out"/>
<feColorMatrix type="matrix" values="0 0 0 0 0 0 0 0 0 0 0 0 0 0 0 0 0 0 1 0"/>
<feBlend mode="normal" in2="BackgroundImageFix" result="effect1_dropShadow_1_1267"/>
<feBlend mode="normal" in="SourceGraphic" in2="effect1_dropShadow_1_1267" result="shape"/>
</filter>
<clipPath id="clip0_1_1267">
<rect width="70.1852" height="70.1852" fill="white" transform="translate(48.4893) rotate(42.6258)"/>
</clipPath>
</defs>
</svg>
