<svg width="343" height="338" viewBox="0 0 343 338" fill="none" xmlns="http://www.w3.org/2000/svg">
<path d="M14.0682 1.97668C14.0682 37.1862 14.4434 51.336 14.4434 88.7811M14.4434 88.7811C14.4434 126.226 14.3853 194.474 14.0682 240.343C13.751 286.212 13.5049 330.859 13.5049 330.859C13.5049 337.338 12.8112 329.693 12.8618 326.245C12.925 321.936 13.532 199.336 13.532 188.633C13.532 177.931 14.0682 123.448 14.4434 88.7811Z" stroke="black" stroke-width="3.70286" stroke-miterlimit="10" stroke-linecap="round" stroke-linejoin="round"/>
<path d="M276.703 325.811C328.2 325.811 321.008 325.811 337.928 325.811C337.637 325.979 335.013 326.624 333.93 326.755C332.577 326.918 297.073 326.829 289.496 326.829C263.558 326.829 146.384 326.22 138.715 326.22M276.703 325.811C276.703 325.811 152.497 326.829 132.688 326.829C112.878 326.829 117.563 326.856 75.7429 326.829C44.4771 326.808 7.09037 326.829 4.5745 326.829C2.05863 326.829 2.98696 325.607 2.98696 325.607C20.5728 326.22 51.1786 326.22 91.3748 326.22C105.226 326.22 121.427 326.22 138.715 326.22M276.703 325.811C239.056 325.811 185.701 326.22 138.715 326.22" stroke="black" stroke-width="3.70286" stroke-miterlimit="10" stroke-linecap="round" stroke-linejoin="round"/>
<path d="M328.949 169.02C328.95 209.994 329.785 235.775 329.785 262.566C329.785 289.357 329.358 334.744 329.358 334.744C329.358 334.744 328.376 336.657 328.376 332.919C328.376 329.182 329.018 302.611 328.949 264.427C328.881 226.242 328.884 186.229 328.949 169.02ZM328.949 169.02C328.949 149.704 328.503 110.249 328.53 88.2927C328.559 63.673 328.53 28.2184 328.53 4.44543" stroke="black" stroke-width="3.70286" stroke-miterlimit="10" stroke-linecap="round" stroke-linejoin="round"/>
<path d="M9.61084 10.5315C27.6435 10.5315 43.3766 10.5315 52.653 10.5315M52.653 10.5315C61.9293 10.5315 103.116 10.7114 120.556 10.7114M52.653 10.5315C52.653 10.5315 72.7694 9.97138 84.5636 9.97138C96.3578 9.97138 120.556 10.7114 120.556 10.7114M341.016 10.7114C322.56 10.7114 331.093 10.5315 312.761 10.5315C302.312 10.5315 289.529 10.8313 271.203 10.7114M169.644 9.97138C182.327 9.98871 248.615 10.5635 271.203 10.7114M169.644 9.97138C156.528 9.95346 137.995 10.7114 120.556 10.7114M169.644 9.97138C169.644 9.97138 201.445 9.97138 219.256 9.97138M271.203 10.7114C271.203 10.7114 237.066 9.97138 219.256 9.97138M120.556 10.7114C131.245 10.7114 156.028 10.7114 169.644 10.7114C183.261 10.7114 208.392 10.218 219.256 9.97138" stroke="black" stroke-width="3.70286" stroke-miterlimit="10" stroke-linecap="round" stroke-linejoin="round"/>
</svg>
