<svg width="109" height="117" viewBox="0 0 109 117" fill="none" xmlns="http://www.w3.org/2000/svg">
<g id="Frame 14" filter="url(#filter0_d_1_1215)">
<rect width="76.3846" height="79.5097" transform="translate(65.1394) rotate(55.0113)" fill="#F3ABCB"/>
<g id="Vector" filter="url(#filter1_d_1_1215)">
<path d="M83.0082 27.1265C81.9094 27.4615 81.9302 27.4469 72.6524 35.6769C68.8939 38.9898 65.7139 41.7116 65.6077 41.6929C65.5016 41.6741 65.2478 39.4952 65.0753 36.8565C64.7218 31.8328 64.2246 28.8631 63.6336 27.9745C62.9344 26.9755 62.0729 26.8964 60.9283 27.6975C59.7212 28.5424 58.9636 29.6307 55.3797 35.6739C52.441 40.6453 51.6813 41.6421 50.9592 41.4964C50.0248 41.3132 48.4288 39.9188 40.5919 32.4432C36.3281 28.3891 32.4139 24.8344 31.879 24.5576C30.1373 23.5753 29.2028 24.9425 29.8748 27.5417C30.0746 28.2701 31.4374 31.8121 32.9002 35.4083C36.966 45.3372 39.0134 51.7178 38.285 52.2277C38.1185 52.3442 36.7138 52.2421 35.1301 52.0173C29.4385 51.1949 25.7031 50.8638 25.0392 51.1114C24.5293 51.3133 24.3649 51.5214 24.3212 52.0791C24.2712 52.6722 24.3877 52.8387 25.1847 53.4901C25.7008 53.873 28.7411 55.5589 31.9354 57.1989C35.1298 58.839 37.9557 60.3958 38.2221 60.6434C39.0274 61.351 38.8692 61.8338 37.5956 62.8493C36.9587 63.357 33.6622 65.9124 30.2616 68.5405C22.3117 74.725 21.1961 75.8778 22.0264 77.0641C22.9878 78.4376 25.8597 77.9779 37.2827 74.5406C42.1546 73.0842 46.3563 71.9107 46.6039 71.9544C46.9785 72.0023 46.9993 72.2978 46.7225 73.4528C45.9939 76.4432 44.6553 84.2325 44.7427 84.9775C44.9653 86.7131 46.0433 87.0129 47.4376 85.7269C47.858 85.3086 50.0391 82.6658 52.3139 79.8024C54.5678 76.9535 56.4596 74.6062 56.5304 74.6187C56.6011 74.6312 57.1775 76.1192 57.7955 77.8881C59.3081 82.1315 62.1422 88.7057 63.4531 90.8888C64.3916 92.4954 64.5435 92.6681 65.1865 92.7452C66.6703 92.9159 66.8514 92.2 68.4045 81.1289C68.9687 77.1063 69.5765 73.7662 69.7305 73.7205C69.8845 73.6747 71.4703 74.3012 73.2225 75.1212C77.6238 77.1567 80.4852 78.0996 81.6714 77.8895C82.612 77.7272 82.6536 77.6981 82.7785 76.9905C82.9742 75.9854 81.424 73.1946 78.9332 69.946C77.8657 68.5537 76.9917 67.305 77.0312 67.1843C77.0354 67.0574 78.9708 67.2531 81.2911 67.6445C88.0316 68.7249 94.1415 69.3475 96.0457 69.1C97.5357 68.9252 98.1414 67.9742 97.4276 66.9545C97.1217 66.5174 92.1981 63.8243 85.1748 60.2133C82.3655 58.7688 80.068 57.5242 80.0514 57.4119C80.0348 57.2995 82.2054 55.7492 84.8505 53.9909C90.3343 50.3077 91.1751 49.4712 90.6091 48.4411C90.1971 47.6752 89.8662 47.6898 83.5481 48.4531C78.1019 49.1333 76.0833 49.3059 75.9231 49.077C75.8648 48.9938 76.1978 48.1406 76.6682 47.1292C77.1323 46.1532 78.1813 43.9307 79.0159 42.1993C81.5988 36.7638 84.0194 31.0077 84.3795 29.4844C84.6647 28.3856 84.646 27.8716 84.3401 27.4346C83.9905 26.9351 83.7782 26.8976 83.0082 27.1265ZM82.3691 30.9535C81.3097 33.6484 77.9942 40.961 76.1002 44.7672C74.5018 47.9324 74.0147 49.4515 74.4371 50.055C74.9324 50.7626 77.3922 50.7773 82.4575 50.0846C85.2753 49.7248 87.8475 49.4128 88.1721 49.4336C88.6799 49.4503 88.6882 49.5065 88.0514 50.0142C87.6705 50.3118 85.2502 52.0368 82.6841 53.8638L78.0016 57.1412L78.3324 57.7468C78.5821 58.1922 80.9815 59.5825 87.008 62.7439C91.6008 65.1416 95.4319 67.2041 95.5193 67.329C95.6067 67.4538 95.6171 67.6016 95.5338 67.6598C95.1384 67.9366 85.6281 66.8414 80.7252 65.9942C77.7535 65.4696 75.2229 65.1323 75.0564 65.2488C74.3488 65.7441 74.5923 66.2248 78.0882 71.2195C79.9963 73.9458 81.5008 76.2725 81.4405 76.4078C81.2073 77.005 78.0609 75.9206 73.1872 73.5646C70.2655 72.1368 69.2395 71.9557 68.5257 72.7964C68.2093 73.1419 67.6369 76.1781 66.7666 81.9342C66.0775 86.6644 65.4197 90.5975 65.3157 90.6704C64.837 91.0054 63.3908 87.8317 60.3134 79.8465C57.3484 72.1548 57.3047 72.0924 55.9311 73.0537C55.5565 73.3159 54.108 75.0119 52.7323 76.8119C49.263 81.3796 46.5241 84.5989 46.3493 84.3491C46.1308 84.037 46.72 80.493 47.7399 76.0583C48.8057 71.4676 48.8265 70.8329 48.1065 70.4686C47.3012 70.0711 45.9547 70.3624 38.6064 72.622C28.5985 75.6889 24.0076 76.7936 23.5852 76.1901C23.3084 75.7947 25.0441 74.3318 33.5497 67.7895C37.2833 64.9282 39.8494 62.7912 40.0804 62.4124C41.0169 60.8267 39.5665 59.3304 34.7261 56.889C29.5362 54.2583 27.0743 52.9117 27.1118 52.6994C27.1347 52.4663 28.4271 52.585 33.5672 53.3283C38.0352 53.9528 39.2817 53.9175 39.673 53.1476C40.5492 51.387 39.1219 46.5568 33.9159 33.5812C31.8476 28.4554 31.1901 26.4971 31.4607 26.3078C31.6896 26.1475 31.7333 26.21 39.5555 33.6647C47.2342 41.003 48.5431 42.1643 49.9269 42.901C51.9954 43.9958 52.8237 43.23 56.9717 36.265C60.1477 30.8794 61.3964 29.0752 61.9854 28.9421C62.6367 28.7652 63.0154 30.8567 63.4791 37.3225C63.8762 43.0288 64.078 44.1588 64.6337 44.111C64.7606 44.1152 65.3142 43.6657 65.8657 43.1246C67.7762 41.2913 81.8677 29.3511 82.7647 28.8163C83.2308 28.552 83.1871 28.7997 82.3691 30.9535Z" fill="black"/>
</g>
<g id="Vector_2" filter="url(#filter2_d_1_1215)">
<path d="M68.5764 49.8779C65.6797 47.3784 60.679 45.6384 56.7354 45.763C54.7501 45.8503 51.7949 46.6784 49.8179 47.7521C44.2405 50.7256 43.2432 58.338 47.7526 63.5846C52.341 68.8999 61.152 71.1666 66.5088 68.4096C70.8063 66.1768 73.3892 61.3614 72.6798 56.8039C72.4322 55.2098 72.2242 54.7353 71.0485 52.9226C70.187 51.6032 69.288 50.496 68.5764 49.8779ZM70.9796 57.0327C71.2604 58.8516 70.7774 61.4841 69.8096 63.2467C69.0708 64.539 68.8023 64.8199 66.8253 66.2037C64.8274 67.602 64.4923 67.7435 62.969 68.0035C61.0377 68.301 57.4667 67.7618 55.0132 66.7815C46.4082 63.3473 43.6326 54.0656 49.876 49.6958C52.5815 47.8022 57.1162 46.7057 60.0171 47.2178C61.5529 47.5072 65.4382 49.4699 67.0176 50.7519C68.7052 52.1442 70.7154 55.3262 70.9796 57.0327Z" fill="black"/>
</g>
<path id="Vector_3" d="M63.6333 57.5233C63.2109 57.2298 62.3389 57.9332 62.4013 58.5096C62.524 59.571 63.9974 59.594 64.1847 58.5326C64.2659 58.0727 64.1265 57.8292 63.6333 57.5233Z" fill="black"/>
<path id="Vector_4" d="M55.9274 53.0258C55.1845 53.2047 54.8806 53.7895 55.2115 54.3951C55.5798 55.0985 56.5142 54.9716 56.7223 54.2058C56.8847 53.5961 56.404 52.9093 55.9274 53.0258Z" fill="black"/>
<path id="Vector_5" d="M57.2893 61.7473C55.9823 62.8481 55.6618 63.0105 55.0125 62.9688C54.3633 62.9271 54.2197 62.8106 54.0657 62.2362C53.9242 61.5911 54.1761 60.2675 54.6527 59.2208C54.8338 58.815 54.7901 58.7526 54.3947 58.7193C53.6955 58.6505 52.7714 60.4756 52.8421 61.7284C52.9522 63.7907 54.5733 64.7335 56.463 63.845C57.362 63.4018 58.746 61.968 58.9625 61.2584C59.2039 60.4073 58.7419 60.5446 57.2893 61.7473Z" fill="black"/>
</g>
<defs>
<filter id="filter0_d_1_1215" x="0" y="0" width="108.939" height="116.689" filterUnits="userSpaceOnUse" color-interpolation-filters="sRGB">
<feFlood flood-opacity="0" result="BackgroundImageFix"/>
<feColorMatrix in="SourceAlpha" type="matrix" values="0 0 0 0 0 0 0 0 0 0 0 0 0 0 0 0 0 0 127 0" result="hardAlpha"/>
<feOffset dy="8.5178"/>
<feComposite in2="hardAlpha" operator="out"/>
<feColorMatrix type="matrix" values="0 0 0 0 0 0 0 0 0 0 0 0 0 0 0 0 0 0 0.25 0"/>
<feBlend mode="normal" in2="BackgroundImageFix" result="effect1_dropShadow_1_1215"/>
<feBlend mode="normal" in="SourceGraphic" in2="effect1_dropShadow_1_1215" result="shape"/>
</filter>
<filter id="filter1_d_1_1215" x="21.7954" y="24.2385" width="75.9312" height="70.6557" filterUnits="userSpaceOnUse" color-interpolation-filters="sRGB">
<feFlood flood-opacity="0" result="BackgroundImageFix"/>
<feColorMatrix in="SourceAlpha" type="matrix" values="0 0 0 0 0 0 0 0 0 0 0 0 0 0 0 0 0 0 127 0" result="hardAlpha"/>
<feOffset dy="2.12945"/>
<feComposite in2="hardAlpha" operator="out"/>
<feColorMatrix type="matrix" values="0 0 0 0 0 0 0 0 0 0 0 0 0 0 0 0 0 0 0.25 0"/>
<feBlend mode="normal" in2="BackgroundImageFix" result="effect1_dropShadow_1_1215"/>
<feBlend mode="normal" in="SourceGraphic" in2="effect1_dropShadow_1_1215" result="shape"/>
</filter>
<filter id="filter2_d_1_1215" x="44.916" y="45.7567" width="27.8804" height="25.9616" filterUnits="userSpaceOnUse" color-interpolation-filters="sRGB">
<feFlood flood-opacity="0" result="BackgroundImageFix"/>
<feColorMatrix in="SourceAlpha" type="matrix" values="0 0 0 0 0 0 0 0 0 0 0 0 0 0 0 0 0 0 127 0" result="hardAlpha"/>
<feOffset dy="2.12945"/>
<feComposite in2="hardAlpha" operator="out"/>
<feColorMatrix type="matrix" values="0 0 0 0 0 0 0 0 0 0 0 0 0 0 0 0 0 0 0.25 0"/>
<feBlend mode="normal" in2="BackgroundImageFix" result="effect1_dropShadow_1_1215"/>
<feBlend mode="normal" in="SourceGraphic" in2="effect1_dropShadow_1_1215" result="shape"/>
</filter>
</defs>
</svg>
