<svg width="42" height="49" viewBox="0 0 42 49" fill="none" xmlns="http://www.w3.org/2000/svg">
<g id="Frame 13">
<path id="Vector" d="M32.6382 8.01136C32.3253 7.53221 29.5282 7.12959 26.3228 7.03566C21.3376 6.90529 20.4957 7.09753 20.2004 8.11058C19.3558 10.6495 20.5274 11.2199 26.3545 11.158C32.6734 10.9958 34.2652 10.2612 32.6382 8.01136Z" fill="black"/>
<path id="Vector_2" d="M23.3331 23.3147C17.1909 19.2711 15.3065 18.6721 15.4413 20.9395C15.496 21.8606 17.5937 23.6558 21.7385 26.396C25.2162 28.6781 28.2392 30.4894 28.5935 30.4683C28.8769 30.4515 29.114 29.6552 29.0593 28.7341C28.9835 27.4587 27.553 26.1215 23.3331 23.3147Z" fill="black"/>
<path id="Vector_3" d="M15.7121 35.7338C12.4869 30.5213 8.66194 25.9845 7.912 26.5268C6.61625 27.4571 7.38451 29.6157 10.7008 33.9695C12.4821 36.4235 14.4136 39.0108 14.9601 39.8316C15.5066 40.6524 16.1865 41.323 16.5407 41.302C18.0287 41.2135 17.6772 38.8879 15.7121 35.7338Z" fill="black"/>
</g>
</svg>
