<svg width="36" height="41" viewBox="0 0 36 41" fill="none" xmlns="http://www.w3.org/2000/svg">
<g id="Frame 42">
<path id="Vector" d="M19.9874 3.55468C19.8648 3.82886 19.8124 5.73252 19.8426 7.76708L19.9079 11.5095L18.6351 11.8332C17.9115 11.9797 17.2447 12.1045 17.1272 12.0519C17.0097 11.9994 16.7962 10.1648 16.5877 8.00347C16.2998 4.44354 15.6378 2.45544 14.8443 2.75854C14.6917 2.78433 14.3508 5.12297 14.0656 7.86255L13.5704 12.8583L10.3002 14.0749C7.34849 15.1048 7.08671 15.2698 7.81752 15.7376C8.23498 16.0653 9.58931 16.295 10.8004 16.3196C12.0289 16.3051 13.0483 16.3379 13.1266 16.373C13.4008 16.4956 13.2797 21.7057 12.9995 22.3323C12.8418 22.6849 11.5638 23.3354 10.1426 23.7808C8.68217 24.2087 7.61343 24.8117 7.70003 25.0385C7.78663 25.2652 8.9534 25.599 10.2644 25.7153C11.6146 25.8492 12.8164 26.1046 12.9814 26.3664C13.1638 26.589 13.4372 28.9204 13.588 31.5259C13.9885 37.2513 14.5947 38.8385 15.853 37.2861C16.1807 36.8687 16.6443 34.2558 16.882 31.307L17.3473 26.0629L18.581 25.7216L19.7971 25.4195L20.0522 29.9988C20.2185 33.4103 20.4856 34.7048 21.034 34.95C22.0915 35.423 22.9241 33.3512 23.6718 28.4214C23.9818 26.257 24.3083 24.4759 24.4042 24.4718C25.7461 24.4139 30.2067 22.7427 30.4519 22.1943C30.9074 21.176 30.1673 20.939 27.0083 21.1713L24.2502 21.3478L24.0829 18.3589C23.991 16.6727 23.8857 15.1215 23.8774 14.9298C23.8867 14.699 25.1863 14.1051 26.7384 13.5773C28.2906 13.0494 29.6644 12.3947 29.7695 12.1597C30.225 11.1414 28.919 10.6983 26.3176 10.945C24.8448 11.0853 23.5029 11.1432 23.3462 11.0731C23.1504 10.9855 22.6441 9.49006 22.1647 7.72456C21.3099 4.38114 20.3903 2.65382 19.9874 3.55468ZM19.9085 16.868C20.0158 17.574 20.0386 18.9942 19.9491 20.0352C19.8318 21.7688 19.705 21.9472 18.8856 22.0977C18.4105 22.2142 17.8354 22.239 17.6787 22.169C17.4829 22.0814 17.3034 20.591 17.229 18.8657C17.1359 15.8159 17.1317 15.7201 18.1212 15.5046C19.5115 15.2333 19.6507 15.3426 19.9085 16.868Z" fill="black"/>
</g>
</svg>
