<svg width="21" height="20" viewBox="0 0 21 20" fill="none" xmlns="http://www.w3.org/2000/svg">
<g id="Frame 20">
<path id="Vector" d="M11.3307 3.15011C10.8574 3.90557 11.5355 6.07041 12.4927 6.8681C13.227 7.46467 13.7703 7.19109 13.9133 6.14372C14.0777 5.0398 13.2688 3.47272 12.3481 3.07884C11.6465 2.77099 11.5621 2.78652 11.3307 3.15011Z" fill="black"/>
<path id="Vector_2" d="M5.01018 3.65255C4.53689 4.40801 5.2149 6.57285 6.17214 7.37054C6.90644 7.96711 7.44973 7.69353 7.59277 6.64616C7.75712 5.54224 6.94825 3.97516 6.02753 3.58129C5.32596 3.27344 5.24149 3.28897 5.01018 3.65255Z" fill="black"/>
<path id="Vector_3" d="M2.33475 9.79322C2.52879 10.9891 4.74918 13.1914 6.72302 14.1285C7.33176 14.4324 8.38183 14.6498 9.31016 14.6897C10.7681 14.7427 10.9751 14.6941 12.8583 13.8268C14.6655 12.9945 14.9448 12.7957 15.8114 11.789C16.9155 10.486 17.9701 7.68677 17.6353 6.90622C17.3424 6.22323 16.917 6.55934 16.0648 8.23711C15.1213 10.0738 14.5955 10.7599 13.4975 11.546C12.4482 12.2864 10.4858 12.863 9.25155 12.8004C7.78525 12.7279 5.02842 11.2401 3.52939 9.7104C2.76618 8.94019 2.2069 8.96408 2.33475 9.79322Z" fill="black"/>
</g>
</svg>
