<svg width="23" height="33" viewBox="0 0 23 33" fill="none" xmlns="http://www.w3.org/2000/svg">
<g id="Frame 43">
<path id="Vector" d="M14.0579 0.675613C11.9741 1.61668 9.68871 4.74236 8.57959 8.17052L8.17628 9.44768L6.22693 9.41407C3.67262 9.38046 2.29463 10.0863 1.4544 11.9012C-0.797437 16.909 3.84066 27.2607 10.3273 31.7307C12.6463 33.344 12.9488 33.2095 15.2007 29.8486C19.1666 23.9333 21.0487 20.001 22.2922 15.1613C24.7121 5.51537 20.3765 -2.18119 14.0579 0.675613ZM17.923 2.89384C19.301 3.59964 20.3093 5.91869 20.5446 8.84271C20.8806 13.6489 18.6624 19.9002 14.0579 27.1598C12.848 29.0756 11.7389 30.6216 11.5708 30.6216C10.865 30.6216 7.20161 26.0843 5.95806 23.6981C2.02576 16.1696 2.5299 10.4223 6.99995 12.1364C7.60492 12.3717 7.90741 12.775 8.04184 13.7161C8.71403 17.7156 10.7306 20.8749 12.6127 20.8749C13.8227 20.8749 14.5957 19.7658 14.5957 18.0181C14.5621 16.2368 13.621 14.1866 11.9069 12.3381L10.4953 10.7921L10.865 9.24602C11.8061 5.54898 14.2932 2.45691 16.377 2.3897C16.7131 2.3897 17.4189 2.62496 17.923 2.89384Z" fill="black"/>
</g>
</svg>
