<svg width="35" height="30" viewBox="0 0 35 30" fill="none" xmlns="http://www.w3.org/2000/svg">
<g id="Frame 44">
<path id="Vector" d="M15.3857 6.01132V11.0496L12.757 9.73528C11.3113 9.0343 9.9531 8.42094 9.69024 8.42094C8.68258 8.42094 9.38356 9.77909 11.2674 11.4439C12.6256 12.6268 13.1075 13.284 12.7132 13.4154C12.3627 13.5469 9.77786 14.2479 6.88631 14.9488C1.49752 16.2632 0.402238 16.8327 1.23465 17.6651C1.54133 17.9718 3.64428 17.8404 8.33209 17.1394C12.0122 16.6137 15.1228 16.307 15.2543 16.4384C15.3857 16.6137 14.6409 18.1471 13.6333 19.8995C12.5818 21.652 11.7056 23.2292 11.6179 23.3606C11.5303 23.5359 11.7494 23.8863 12.056 24.1492C12.5818 24.5873 13.0199 24.3683 14.4219 23.1415C15.3857 22.2653 16.3496 21.5643 16.5686 21.5643C16.7877 21.5643 17.2258 22.8787 17.5763 24.4997C18.3211 28.2675 18.8468 29.4504 19.8106 29.4504C20.9936 29.4504 21.2126 28.0922 20.8621 23.0539C20.6869 20.5129 20.6869 18.4975 20.9059 18.4975C21.125 18.4975 22.8774 19.1985 24.8051 20.0309C28.6167 21.6958 29.8434 21.9148 29.8434 20.951C29.8434 20.0748 29.1425 19.4614 25.769 17.1394C24.148 16.0879 22.8336 15.0803 22.8336 14.9488C22.8336 14.8174 25.068 14.0726 27.7843 13.284C32.6474 11.882 34.6627 10.962 34.6627 10.1734C34.6627 9.51623 31.9026 9.64766 27.5214 10.4363C25.4185 10.8306 23.5346 11.0496 23.4032 10.8744C23.2717 10.7429 23.5784 9.60385 24.1042 8.37713C26.0757 3.6017 24.849 3.16359 21.7822 7.58853C20.6431 9.29717 19.504 10.5239 19.3287 10.3048C19.1535 10.1296 18.6716 8.37713 18.2334 6.44943C17.3572 2.33117 16.7877 0.973019 15.9553 0.973019C15.5171 0.973019 15.3857 2.11211 15.3857 6.01132Z" fill="black"/>
</g>
</svg>
