<svg width="80" height="86" viewBox="0 0 80 86" fill="none" xmlns="http://www.w3.org/2000/svg">
<g id="Frame 18" filter="url(#filter0_d_1_1337)">
<rect width="55.9106" height="58.1981" transform="translate(47.9421) rotate(55.0113)" fill="#BAE6FF"/>
<g id="Vector" filter="url(#filter1_d_1_1337)">
<path d="M61.0239 19.8558C60.2196 20.101 60.2349 20.0903 53.4439 26.1144C50.6927 28.5392 48.3651 30.5315 48.2874 30.5178C48.2097 30.5041 48.024 28.9092 47.8977 26.9778C47.6389 23.3006 47.275 21.1269 46.8424 20.4765C46.3306 19.7453 45.7 19.6874 44.8622 20.2738C43.9787 20.8921 43.4242 21.6888 40.8009 26.1121C38.6499 29.7511 38.0938 30.4807 37.5653 30.374C36.8813 30.2399 35.7131 29.2193 29.9768 23.7474C26.8558 20.78 23.9908 18.1781 23.5993 17.9755C22.3244 17.2564 21.6404 18.2572 22.1323 20.1597C22.2785 20.6929 23.2761 23.2855 24.3468 25.9177C27.3228 33.1853 28.8214 37.8557 28.2882 38.2289C28.1664 38.3142 27.1382 38.2395 25.979 38.0749C21.8129 37.473 19.0787 37.2306 18.5928 37.4119C18.2196 37.5596 18.0992 37.7119 18.0672 38.1201C18.0306 38.5543 18.1159 38.6761 18.6993 39.1529C19.0771 39.4332 21.3025 40.6672 23.6406 41.8676C25.9787 43.0681 28.0472 44.2076 28.2422 44.3889C28.8316 44.9068 28.7158 45.2602 27.7836 46.0035C27.3174 46.3752 24.9045 48.2456 22.4154 50.1693C16.5963 54.6961 15.7798 55.5399 16.3875 56.4082C17.0912 57.4136 19.1933 57.077 27.5546 54.5611C31.1206 53.495 34.1961 52.6361 34.3773 52.6681C34.6515 52.7032 34.6667 52.9195 34.4641 53.7648C33.9308 55.9537 32.9511 61.6552 33.015 62.2005C33.1779 63.4709 33.967 63.6903 34.9876 62.749C35.2953 62.4429 36.8918 60.5084 38.5568 58.4125C40.2066 56.3273 41.5913 54.6091 41.6431 54.6183C41.6949 54.6274 42.1168 55.7166 42.5691 57.0114C43.6764 60.1173 45.7507 64.9294 46.7103 66.5273C47.3972 67.7033 47.5084 67.8298 47.9791 67.8862C49.0652 68.0111 49.1977 67.4871 50.3345 59.3835C50.7475 56.4391 51.1924 53.9943 51.3051 53.9608C51.4179 53.9273 52.5786 54.3859 53.8611 54.9861C57.0827 56.476 59.1771 57.1662 60.0454 57.0124C60.7339 56.8936 60.7644 56.8723 60.8558 56.3544C60.999 55.6186 59.8643 53.5759 58.0411 51.198C57.2597 50.1789 56.62 49.2649 56.649 49.1766C56.652 49.0837 58.0686 49.2269 59.7671 49.5134C64.7008 50.3042 69.173 50.7599 70.5668 50.5788C71.6575 50.4509 72.1008 49.7548 71.5784 49.0083C71.3545 48.6885 67.7506 46.7172 62.6097 44.074C60.5534 43.0168 58.8718 42.1058 58.8596 42.0235C58.8474 41.9413 60.4363 40.8065 62.3724 39.5195C66.3863 36.8236 67.0017 36.2113 66.5874 35.4572C66.2859 34.8967 66.0437 34.9073 61.4191 35.4661C57.4327 35.9639 55.9551 36.0903 55.8378 35.9227C55.7952 35.8618 56.039 35.2373 56.3833 34.497C56.723 33.7826 57.4908 32.1558 58.1017 30.8885C59.9923 26.9099 61.764 22.6967 62.0276 21.5817C62.2364 20.7774 62.2227 20.4012 61.9988 20.0813C61.7429 19.7157 61.5875 19.6883 61.0239 19.8558ZM60.5561 22.657C59.7807 24.6296 57.3538 29.9821 55.9675 32.7681C54.7975 35.0849 54.441 36.1968 54.7502 36.6386C55.1127 37.1565 56.9132 37.1673 60.6208 36.6603C62.6833 36.3969 64.5661 36.1685 64.8037 36.1837C65.1754 36.1959 65.1814 36.2371 64.7153 36.6087C64.4365 36.8265 62.6649 38.0892 60.7867 39.4265L57.3592 41.8254L57.6014 42.2687C57.7842 42.5947 59.5404 43.6123 63.9516 45.9264C67.3133 47.6814 70.1176 49.1911 70.1815 49.2825C70.2455 49.3739 70.2531 49.482 70.1922 49.5247C69.9027 49.7272 62.9415 48.9256 59.3528 48.3054C57.1776 47.9214 55.3254 47.6746 55.2035 47.7599C54.6856 48.1224 54.8638 48.4743 57.4226 52.1302C58.8193 54.1257 59.9205 55.8288 59.8764 55.9278C59.7057 56.365 57.4026 55.5712 53.8353 53.8467C51.6967 52.8016 50.9457 52.6691 50.4232 53.2844C50.1917 53.5373 49.7727 55.7597 49.1357 59.9729C48.6313 63.4353 48.1498 66.3142 48.0736 66.3675C47.7233 66.6127 46.6647 64.2897 44.4122 58.4448C42.2419 52.8148 42.2099 52.7691 41.2045 53.4728C40.9303 53.6647 39.8701 54.9061 38.8631 56.2236C36.3237 59.567 34.3189 61.9234 34.191 61.7406C34.0311 61.5121 34.4623 58.918 35.2089 55.672C35.989 52.3118 36.0042 51.8472 35.4772 51.5806C34.8877 51.2896 33.9022 51.5028 28.5235 53.1567C21.198 55.4016 17.8377 56.2102 17.5285 55.7685C17.3259 55.479 18.5964 54.4083 24.8222 49.6195C27.555 47.5252 29.4333 45.961 29.6024 45.6837C30.2879 44.5231 29.2262 43.4278 25.6833 41.6408C21.8844 39.7152 20.0824 38.7295 20.1099 38.5742C20.1266 38.4036 21.0726 38.4905 24.835 39.0345C28.1054 39.4916 29.0178 39.4658 29.3042 38.9022C29.9455 37.6136 28.9008 34.0781 25.0902 24.5804C23.5763 20.8285 23.095 19.3951 23.293 19.2565C23.4606 19.1392 23.4926 19.1849 29.2182 24.6415C34.8387 30.0128 35.7967 30.8629 36.8097 31.4022C38.3237 32.2035 38.93 31.643 41.9661 26.5448C44.2909 22.6028 45.2049 21.2822 45.636 21.1847C46.1128 21.0553 46.3899 22.5861 46.7293 27.3189C47.02 31.4957 47.1677 32.3228 47.5744 32.2878C47.6673 32.2908 48.0725 31.9618 48.4762 31.5658C49.8746 30.2239 60.1891 21.4841 60.8456 21.0927C61.1868 20.8992 61.1548 21.0805 60.5561 22.657Z" fill="black"/>
</g>
<g id="Vector_2" filter="url(#filter2_d_1_1337)">
<path d="M50.4612 36.5083C48.3409 34.6788 44.6806 33.4051 41.7941 33.4964C40.3409 33.5603 38.1778 34.1664 36.7307 34.9523C32.6483 37.1288 31.9183 42.7008 35.219 46.5411C38.5775 50.4317 45.0269 52.0909 48.9478 50.0728C52.0934 48.4385 53.984 44.9138 53.4647 41.5779C53.2835 40.4111 53.1312 40.0638 52.2707 38.737C51.6401 37.7712 50.9821 36.9608 50.4612 36.5083ZM52.2202 41.7454C52.4258 43.0767 52.0723 45.0036 51.3639 46.2937C50.8231 47.2396 50.6266 47.4453 49.1794 48.4582C47.7171 49.4817 47.4718 49.5853 46.3568 49.7756C44.9432 49.9933 42.3293 49.5987 40.5335 48.8811C34.235 46.3674 32.2033 39.5736 36.7733 36.375C38.7536 34.989 42.0728 34.1864 44.1962 34.5613C45.3203 34.7731 48.1641 36.2096 49.3202 37.148C50.5555 38.1672 52.0269 40.4963 52.2202 41.7454Z" fill="black"/>
</g>
<path id="Vector_3" d="M46.8383 42.105C46.5291 41.8902 45.8908 42.405 45.9365 42.827C46.0263 43.6038 47.1048 43.6207 47.2419 42.8438C47.3014 42.5072 47.1993 42.3289 46.8383 42.105Z" fill="black"/>
<path id="Vector_4" d="M41.1986 38.8126C40.6548 38.9435 40.4324 39.3715 40.6745 39.8148C40.9441 40.3297 41.6281 40.2368 41.7804 39.6763C41.8993 39.23 41.5474 38.7273 41.1986 38.8126Z" fill="black"/>
<path id="Vector_5" d="M42.1953 45.1967C41.2386 46.0025 41.004 46.1213 40.5288 46.0908C40.0535 46.0603 39.9484 45.975 39.8357 45.5546C39.7322 45.0823 39.9166 44.1136 40.2654 43.3474C40.398 43.0504 40.366 43.0047 40.0766 42.9803C39.5648 42.93 38.8884 44.2658 38.9401 45.1828C39.0207 46.6924 40.2073 47.3825 41.5905 46.7321C42.2485 46.4077 43.2615 45.3583 43.42 44.8388C43.5967 44.2158 43.2586 44.3163 42.1953 45.1967Z" fill="black"/>
</g>
<defs>
<filter id="filter0_d_1_1337" x="0.262451" y="0" width="79.7397" height="85.4119" filterUnits="userSpaceOnUse" color-interpolation-filters="sRGB">
<feFlood flood-opacity="0" result="BackgroundImageFix"/>
<feColorMatrix in="SourceAlpha" type="matrix" values="0 0 0 0 0 0 0 0 0 0 0 0 0 0 0 0 0 0 127 0" result="hardAlpha"/>
<feOffset dy="6.2347"/>
<feComposite in2="hardAlpha" operator="out"/>
<feColorMatrix type="matrix" values="0 0 0 0 0 0 0 0 0 0 0 0 0 0 0 0 0 0 0.25 0"/>
<feBlend mode="normal" in2="BackgroundImageFix" result="effect1_dropShadow_1_1337"/>
<feBlend mode="normal" in="SourceGraphic" in2="effect1_dropShadow_1_1337" result="shape"/>
</filter>
<filter id="filter1_d_1_1337" x="16.2185" y="17.7419" width="55.5786" height="51.7172" filterUnits="userSpaceOnUse" color-interpolation-filters="sRGB">
<feFlood flood-opacity="0" result="BackgroundImageFix"/>
<feColorMatrix in="SourceAlpha" type="matrix" values="0 0 0 0 0 0 0 0 0 0 0 0 0 0 0 0 0 0 127 0" result="hardAlpha"/>
<feOffset dy="1.55868"/>
<feComposite in2="hardAlpha" operator="out"/>
<feColorMatrix type="matrix" values="0 0 0 0 0 0 0 0 0 0 0 0 0 0 0 0 0 0 0.25 0"/>
<feBlend mode="normal" in2="BackgroundImageFix" result="effect1_dropShadow_1_1337"/>
<feBlend mode="normal" in="SourceGraphic" in2="effect1_dropShadow_1_1337" result="shape"/>
</filter>
<filter id="filter2_d_1_1337" x="33.1426" y="33.4918" width="20.4075" height="19.0029" filterUnits="userSpaceOnUse" color-interpolation-filters="sRGB">
<feFlood flood-opacity="0" result="BackgroundImageFix"/>
<feColorMatrix in="SourceAlpha" type="matrix" values="0 0 0 0 0 0 0 0 0 0 0 0 0 0 0 0 0 0 127 0" result="hardAlpha"/>
<feOffset dy="1.55868"/>
<feComposite in2="hardAlpha" operator="out"/>
<feColorMatrix type="matrix" values="0 0 0 0 0 0 0 0 0 0 0 0 0 0 0 0 0 0 0.25 0"/>
<feBlend mode="normal" in2="BackgroundImageFix" result="effect1_dropShadow_1_1337"/>
<feBlend mode="normal" in="SourceGraphic" in2="effect1_dropShadow_1_1337" result="shape"/>
</filter>
</defs>
</svg>
