<svg width="32" height="28" viewBox="0 0 32 28" fill="none" xmlns="http://www.w3.org/2000/svg">
<g id="Frame 25">
<path id="Vector" d="M15.9863 1.24719C15.4053 1.70366 14.2849 3.1561 13.5379 4.44254L12.1685 6.80793L7.68668 7.13991C2.45793 7.55489 1.37898 7.88688 0.756509 9.25631C0.00954387 10.8747 0.590516 11.9952 3.66137 15.1075C5.2798 16.6845 6.60773 18.2614 6.60773 18.5519C6.60773 18.8424 6.10976 20.7513 5.52878 22.7432C4.90631 24.7766 4.53283 26.7685 4.69882 27.142C5.07231 28.1794 6.60773 27.7644 10.55 25.5235C12.376 24.4861 14.0774 23.6146 14.2849 23.6146C14.5339 23.6146 15.8203 24.1956 17.1897 24.8596C20.0946 26.2705 21.5055 26.395 22.8335 25.3161C23.6634 24.6521 23.8294 24.0711 23.9539 21.4152L24.1199 18.2614L26.6928 16.643C30.0126 14.4436 31.4236 13.1571 31.7556 11.7877C32.2535 9.71279 29.6806 8.30186 25.4063 8.26036C22.875 8.26036 21.63 7.63789 21.298 6.30995C20.8416 4.44254 19.6381 1.82816 18.8497 1.08119C17.9367 0.168236 17.3142 0.209734 15.9863 1.24719ZM17.3972 6.84942C17.3972 7.18141 17.1067 7.4304 16.7748 7.4304C16.0693 7.4304 16.0278 7.3474 16.4013 6.43444C16.6918 5.68748 17.3972 5.93647 17.3972 6.84942ZM9.92758 11.3727C9.92758 11.9122 8.93162 14.0701 8.68264 14.0701C8.18466 14.0701 5.77777 11.9952 5.77777 11.5802C5.77777 11.3727 6.19275 11.1652 6.73223 11.0822C7.60369 10.9577 9.92758 11.1652 9.92758 11.3727ZM17.5217 11.5387C18.6007 11.9537 18.8082 12.4102 19.2646 14.9C19.5136 16.311 19.4721 16.394 17.2727 17.5974L14.9903 18.8009L13.3304 17.6804L11.629 16.56L12.2515 14.7756C13.3719 11.5387 14.9488 10.5842 17.5217 11.5387ZM25.8628 12.5762C25.6138 13.2401 23.7049 14.1531 23.207 13.8626C23.041 13.7796 22.792 13.2816 22.6675 12.8251C22.46 12.0782 22.6675 11.9952 24.2859 11.9952C25.6138 11.9952 26.0288 12.1197 25.8628 12.5762ZM10.3426 20.8758C10.3426 21.0003 10.1766 21.2077 9.92758 21.3322C9.72009 21.4567 9.5126 21.3737 9.5126 21.1663C9.5126 20.9173 9.72009 20.7098 9.92758 20.7098C10.1766 20.7098 10.3426 20.7928 10.3426 20.8758Z" fill="black"/>
</g>
</svg>
