<svg width="51" height="39" viewBox="0 0 51 39" fill="none" xmlns="http://www.w3.org/2000/svg">
<g id="Vector" filter="url(#filter0_d_1_1477)">
<path d="M33.7806 -20.1812V-8.3625L27.6143 -11.4456C24.2228 -13.09 21.0369 -14.5288 20.4203 -14.5288C18.0565 -14.5288 19.7009 -11.3429 24.12 -7.43756C27.306 -4.66273 28.4364 -3.12116 27.5115 -2.81284C26.6893 -2.50453 20.6258 -0.860188 13.8429 0.784157C1.20201 3.8673 -1.36728 5.20333 0.585378 7.15599C1.30478 7.87539 6.23781 7.56707 17.2344 5.92273C25.8672 4.68947 33.1639 3.97007 33.4722 4.27839C33.7806 4.68947 32.0334 8.28647 29.6697 12.3973C27.2032 16.5082 25.1478 20.208 24.9422 20.5163C24.7367 20.9274 25.2505 21.7495 25.9699 22.3662C27.2032 23.3939 28.2309 22.88 31.5196 20.0024C33.7806 17.947 36.0415 16.3026 36.5554 16.3026C37.0692 16.3026 38.097 19.3858 38.9191 23.1883C40.6662 32.0267 41.8995 34.8015 44.1605 34.8015C46.9353 34.8015 47.4492 31.6156 46.627 19.7969C46.2159 13.8361 46.2159 9.10865 46.7298 9.10865C47.2436 9.10865 51.3545 10.753 55.8764 12.7056C64.8175 16.611 67.6951 17.1248 67.6951 14.8638C67.6951 12.8084 66.0508 11.3696 58.1374 5.92273C54.3349 3.45621 51.2517 1.09247 51.2517 0.784157C51.2517 0.475842 56.493 -1.27127 62.8649 -3.12116C74.2725 -6.40984 79 -8.56805 79 -10.4179C79 -11.9595 72.5254 -11.6512 62.2482 -9.8013C57.3152 -8.87636 52.896 -8.3625 52.5877 -8.77359C52.2794 -9.0819 52.9988 -11.754 54.2321 -14.6316C58.8568 -25.8337 55.9792 -26.8614 48.7852 -16.4814C46.1131 -12.4734 43.4411 -9.59576 43.03 -10.1096C42.6189 -10.5207 41.4884 -14.6316 40.4607 -19.1535C38.4053 -28.814 37.0692 -31.9999 35.1166 -31.9999C34.0889 -31.9999 33.7806 -29.3279 33.7806 -20.1812Z" fill="#F3ABCB"/>
<path d="M34.3037 -8.3625V-7.51598L33.5466 -7.89456L27.386 -10.9749C27.3851 -10.9753 27.3841 -10.9758 27.3832 -10.9763C25.6912 -11.7966 24.0552 -12.5634 22.7678 -13.1242C22.123 -13.4051 21.5718 -13.6316 21.1476 -13.787C20.9351 -13.8649 20.7611 -13.9224 20.6269 -13.9598C20.5599 -13.9784 20.5076 -13.9907 20.4685 -13.9981C20.4265 -14.006 20.4133 -14.0056 20.4203 -14.0056C20.1769 -14.0056 20.0402 -13.9636 19.9711 -13.9256C19.9166 -13.8957 19.8946 -13.8652 19.8803 -13.818C19.8352 -13.6692 19.8661 -13.3134 20.1907 -12.689C20.814 -11.4905 22.2719 -9.76918 24.4649 -7.83096C26.06 -6.44162 27.1772 -5.33064 27.7792 -4.50965C28.0701 -4.11308 28.2979 -3.70988 28.3398 -3.33309C28.3627 -3.1273 28.333 -2.89961 28.1973 -2.69606C28.0659 -2.49891 27.8747 -2.38419 27.6868 -2.31984C27.2314 -2.15108 25.4841 -1.65711 23.0468 -1.00971C20.5769 -0.353645 17.3619 0.469398 13.9669 1.29243C7.6325 2.8374 3.88871 3.93024 1.97063 4.86437C1.49627 5.09539 1.1552 5.30673 0.921036 5.49904C0.685336 5.69262 0.585359 5.84444 0.546834 5.94982C0.493291 6.09628 0.503534 6.33426 0.955322 6.78605C0.954333 6.78506 0.953826 6.78455 0.953878 6.78448C0.954379 6.78385 1.00764 6.82484 1.18508 6.86991C1.36671 6.91605 1.62591 6.95366 1.97695 6.97589C2.67767 7.02026 3.67822 6.99966 5.01866 6.90391C7.6956 6.7127 11.6618 6.22702 17.157 5.40529L17.1604 5.40481C21.4822 4.7874 25.472 4.29827 28.4227 4.00191C29.897 3.85384 31.1177 3.7533 31.9927 3.7093C32.4286 3.68738 32.789 3.67894 33.0559 3.687C33.1877 3.69098 33.311 3.69933 33.415 3.71563C33.4664 3.72371 33.5269 3.73578 33.5873 3.75576C33.6349 3.7715 33.7453 3.81152 33.8422 3.90844L33.8685 3.93473L33.8908 3.96448C33.9964 4.10527 34.0213 4.25925 34.0282 4.35491C34.0356 4.45889 34.026 4.56343 34.0112 4.65782C33.9814 4.84745 33.9181 5.07076 33.8355 5.3119C33.6687 5.79864 33.3957 6.43582 33.0458 7.17441C32.3441 8.6558 31.3091 10.5958 30.1232 12.6581L30.1233 12.6582L30.1183 12.6665C28.8875 14.7178 27.7589 16.6672 26.9119 18.1432C26.6459 18.6066 26.4055 19.0272 26.1977 19.391C25.8113 20.067 25.5373 20.5466 25.42 20.7389C25.4207 20.7488 25.4225 20.7636 25.4268 20.784C25.4424 20.8578 25.4834 20.9658 25.5624 21.1027C25.7194 21.3749 25.9848 21.6893 26.3077 21.9666C26.5724 22.1867 26.7821 22.2872 26.9775 22.3185C27.1713 22.3495 27.4146 22.3225 27.7643 22.1695C28.4981 21.8484 29.5149 21.0612 31.1713 19.612C32.312 18.5752 33.4553 17.6395 34.3835 16.9597C34.8472 16.6201 35.2649 16.3387 35.6062 16.1397C35.7764 16.0405 35.9366 15.9565 36.0798 15.8957C36.2068 15.8418 36.38 15.7795 36.5554 15.7795C36.8674 15.7795 37.0754 15.9944 37.1674 16.1014C37.2843 16.2373 37.3914 16.413 37.4899 16.6022C37.6895 16.9853 37.9018 17.5185 38.1169 18.151C38.5493 19.4219 39.0167 21.1639 39.4305 23.0778L39.4306 23.0778L39.4324 23.0869C40.3067 27.51 41.0426 30.3577 41.8242 32.0946C42.2137 32.9602 42.596 33.5061 42.9754 33.834C43.3389 34.148 43.7177 34.2783 44.1605 34.2783C44.7418 34.2783 45.1358 34.1182 45.4394 33.7733C45.7684 33.3997 46.0458 32.7484 46.2263 31.6466C46.5873 29.4432 46.5169 25.7537 46.1051 19.8332L46.1051 19.8329C45.899 16.8453 45.7954 14.159 45.8084 12.214C45.8148 11.2446 45.8503 10.4434 45.9198 9.87671C45.954 9.59815 45.9997 9.3469 46.0661 9.15355C46.0984 9.0596 46.1472 8.94364 46.2268 8.84154C46.3069 8.73882 46.4727 8.58547 46.7298 8.58547C46.879 8.58547 47.069 8.63438 47.2288 8.68013C47.413 8.73286 47.644 8.80839 47.9124 8.90221C48.4504 9.09024 49.1611 9.35973 49.9924 9.68837C51.6562 10.3461 53.8197 11.2476 56.0838 12.2253L56.0858 12.2262C60.5647 14.1825 63.4648 15.261 65.2323 15.5824C66.1306 15.7457 66.6211 15.6895 66.8682 15.5636C67.0411 15.4754 67.172 15.3122 67.172 14.8638C67.172 14.4305 67.0879 14.0425 66.8553 13.6163C66.6157 13.1772 66.2081 12.6789 65.5282 12.0488C64.162 10.7829 61.8087 9.08498 57.8466 6.35773C55.9389 5.12012 54.2097 3.90719 52.954 2.96214C52.3265 2.4899 51.8111 2.08 51.4492 1.76479C51.2697 1.60841 51.1183 1.46703 51.0079 1.34798C50.9537 1.28946 50.8985 1.22477 50.8535 1.15816C50.831 1.12475 50.8041 1.08075 50.7814 1.02885C50.7609 0.982098 50.7285 0.894962 50.7285 0.784157C50.7285 0.595844 50.8227 0.468037 50.8614 0.420513C50.9087 0.362537 50.9603 0.319931 50.9967 0.292404C51.0715 0.235882 51.1613 0.18457 51.2482 0.139404C51.4273 0.0464249 51.676 -0.0619278 51.9762 -0.181828C52.5808 -0.423355 53.446 -0.732124 54.5025 -1.08644C56.6181 -1.79595 59.5287 -2.69736 62.719 -3.62359L62.72 -3.62386C68.4205 -5.26725 72.4233 -6.62041 74.9943 -7.78562C76.2825 -8.36942 77.181 -8.89282 77.7497 -9.36306C78.3276 -9.84095 78.4755 -10.1882 78.4768 -10.415C78.4717 -10.4225 78.4536 -10.4456 78.4054 -10.4788C78.2916 -10.557 78.077 -10.6462 77.7217 -10.7198C77.018 -10.8655 75.9389 -10.916 74.4989 -10.8587C71.6317 -10.7445 67.472 -10.2099 62.3427 -9.28672C59.8683 -8.8228 57.5172 -8.46088 55.7407 -8.26637C54.8542 -8.1693 54.0987 -8.11256 53.5383 -8.10752C53.2603 -8.10501 53.0121 -8.11493 52.813 -8.14415C52.7142 -8.15866 52.6095 -8.18041 52.5121 -8.21626C52.4331 -8.24533 52.2993 -8.30469 52.193 -8.42984C52.1082 -8.52465 52.065 -8.62884 52.0415 -8.70573C52.0148 -8.79322 52.0027 -8.88136 51.9973 -8.95996C51.9866 -9.11662 51.9985 -9.29554 52.0222 -9.48071C52.0701 -9.85484 52.1769 -10.3347 52.3276 -10.8788C52.6302 -11.9706 53.1262 -13.379 53.7497 -14.8343C54.8998 -17.6203 55.5702 -19.7435 55.8286 -21.1977C55.9587 -21.9299 55.9768 -22.4532 55.9215 -22.7924C55.8942 -22.9596 55.8532 -23.0555 55.8211 -23.1053C55.7943 -23.1468 55.7772 -23.1527 55.77 -23.1552L55.7697 -23.1553C55.7321 -23.1683 55.5546 -23.1879 55.1483 -22.9566C54.7657 -22.7388 54.2779 -22.353 53.6883 -21.7736C52.5133 -20.6188 51.0068 -18.7682 49.2178 -16.1872C47.872 -14.1688 46.5211 -12.4269 45.4465 -11.2474C44.9122 -10.661 44.4295 -10.1951 44.039 -9.90487C43.8491 -9.76379 43.645 -9.63661 43.444 -9.57282C43.2592 -9.51418 42.896 -9.46341 42.6393 -9.76124C42.5221 -9.88825 42.4328 -10.069 42.3666 -10.2161C42.2856 -10.3961 42.1981 -10.6238 42.1058 -10.8874C41.9208 -11.4161 41.7054 -12.1217 41.4729 -12.9483C41.0074 -14.6036 40.4657 -16.7708 39.9505 -19.0376L39.9505 -19.0375L39.949 -19.0446C38.9209 -23.8766 38.0813 -27.0443 37.2672 -28.9982C36.8597 -29.976 36.4755 -30.6073 36.1091 -30.9887C35.7575 -31.3546 35.438 -31.4768 35.1166 -31.4768C35.1155 -31.4768 35.1157 -31.4778 35.1142 -31.4772C35.1128 -31.4766 35.1099 -31.4746 35.1033 -31.4689C35.0778 -31.4472 35.0215 -31.3839 34.953 -31.2285C34.8132 -30.9113 34.6847 -30.3577 34.583 -29.4616C34.3813 -27.6842 34.3037 -24.7585 34.3037 -20.1812V-8.3625Z" stroke="black" stroke-width="1.04636"/>
</g>
<defs>
<filter id="filter0_d_1_1477" x="0" y="-32" width="79" height="70.8638" filterUnits="userSpaceOnUse" color-interpolation-filters="sRGB">
<feFlood flood-opacity="0" result="BackgroundImageFix"/>
<feColorMatrix in="SourceAlpha" type="matrix" values="0 0 0 0 0 0 0 0 0 0 0 0 0 0 0 0 0 0 127 0" result="hardAlpha"/>
<feOffset dy="4.06226"/>
<feComposite in2="hardAlpha" operator="out"/>
<feColorMatrix type="matrix" values="0 0 0 0 0.745098 0 0 0 0 0.74902 0 0 0 0 0.705882 0 0 0 1 0"/>
<feBlend mode="normal" in2="BackgroundImageFix" result="effect1_dropShadow_1_1477"/>
<feBlend mode="normal" in="SourceGraphic" in2="effect1_dropShadow_1_1477" result="shape"/>
</filter>
</defs>
</svg>
