<svg width="79" height="71" viewBox="0 0 79 71" fill="none" xmlns="http://www.w3.org/2000/svg">
<g filter="url(#filter0_d_1_1478)">
<path d="M33.7806 11.8185V23.6373L27.6143 20.5541C24.2228 18.9098 21.0369 17.471 20.4203 17.471C18.0565 17.471 19.7009 20.6569 24.12 24.5622C27.306 27.337 28.4364 28.8786 27.5115 29.1869C26.6893 29.4952 20.6258 31.1396 13.8429 32.7839C1.20201 35.8671 -1.36728 37.2031 0.585378 39.1557C1.30478 39.8751 6.23781 39.5668 17.2344 37.9225C25.8672 36.6892 33.1639 35.9698 33.4722 36.2781C33.7806 36.6892 32.0334 40.2862 29.6697 44.3971C27.2032 48.5079 25.1478 52.2077 24.9422 52.516C24.7367 52.9271 25.2505 53.7493 25.9699 54.3659C27.2032 55.3936 28.2309 54.8798 31.5196 52.0022C33.7806 49.9467 36.0415 48.3024 36.5554 48.3024C37.0692 48.3024 38.097 51.3855 38.9191 55.1881C40.6662 64.0264 41.8995 66.8013 44.1605 66.8013C46.9353 66.8013 47.4492 63.6154 46.627 51.7966C46.2159 45.8359 46.2159 41.1084 46.7298 41.1084C47.2436 41.1084 51.3545 42.7527 55.8764 44.7054C64.8175 48.6107 67.6951 49.1246 67.6951 46.8636C67.6951 44.8082 66.0508 43.3694 58.1374 37.9225C54.3349 35.456 51.2517 33.0922 51.2517 32.7839C51.2517 32.4756 56.493 30.7285 62.8649 28.8786C74.2725 25.5899 79 23.4317 79 21.5818C79 20.0403 72.5254 20.3486 62.2482 22.1985C57.3152 23.1234 52.896 23.6373 52.5877 23.2262C52.2794 22.9179 52.9988 20.2458 54.2321 17.3682C58.8568 6.1661 55.9792 5.13839 48.7852 15.5183C46.1131 19.5264 43.4411 22.404 43.03 21.8901C42.6189 21.4791 41.4884 17.3682 40.4607 12.8462C38.4053 3.18573 37.0692 -0.000183105 35.1166 -0.000183105C34.0889 -0.000183105 33.7806 2.67188 33.7806 11.8185Z" fill="#F3ABCB"/>
<path d="M34.3037 23.6373V24.4838L33.5466 24.1052L27.386 21.0249C27.3851 21.0244 27.3841 21.024 27.3832 21.0235C25.6912 20.2032 24.0552 19.4364 22.7678 18.8755C22.123 18.5946 21.5718 18.3681 21.1476 18.2127C20.9351 18.1349 20.7611 18.0774 20.6269 18.04C20.5599 18.0213 20.5076 18.009 20.4685 18.0017C20.4265 17.9937 20.4133 17.9941 20.4203 17.9941C20.1769 17.9941 20.0402 18.0362 19.9711 18.0741C19.9166 18.104 19.8946 18.1346 19.8803 18.1818C19.8352 18.3305 19.8661 18.6864 20.1907 19.3107C20.814 20.5093 22.2719 22.2306 24.4649 24.1688C26.06 25.5581 27.1772 26.6691 27.7792 27.4901C28.0701 27.8867 28.2979 28.2899 28.3398 28.6667C28.3627 28.8725 28.333 29.1001 28.1973 29.3037C28.0659 29.5008 27.8747 29.6156 27.6868 29.6799C27.2314 29.8487 25.4841 30.3426 23.0468 30.99C20.5769 31.6461 17.3619 32.4692 13.9669 33.2922C7.6325 34.8372 3.88871 35.93 1.97063 36.8641C1.49627 37.0951 1.1552 37.3065 0.921036 37.4988C0.685336 37.6924 0.585359 37.8442 0.546834 37.9496C0.493291 38.096 0.503534 38.334 0.955322 38.7858C0.954333 38.7848 0.953826 38.7843 0.953878 38.7842C0.954379 38.7836 1.00764 38.8246 1.18508 38.8697C1.36671 38.9158 1.62591 38.9534 1.97695 38.9756C2.67767 39.02 3.67822 38.9994 5.01866 38.9037C7.6956 38.7125 11.6618 38.2268 17.157 37.4051L17.1604 37.4046C21.4822 36.7872 25.472 36.298 28.4227 36.0017C29.897 35.8536 31.1177 35.7531 31.9927 35.7091C32.4286 35.6871 32.789 35.6787 33.0559 35.6868C33.1877 35.6907 33.311 35.6991 33.415 35.7154C33.4664 35.7235 33.5269 35.7355 33.5873 35.7555C33.6349 35.7713 33.7453 35.8113 33.8422 35.9082L33.8685 35.9345L33.8908 35.9642C33.9964 36.105 34.0213 36.259 34.0282 36.3547C34.0356 36.4586 34.026 36.5632 34.0112 36.6576C33.9814 36.8472 33.9181 37.0705 33.8355 37.3117C33.6687 37.7984 33.3957 38.4356 33.0458 39.1742C32.3441 40.6556 31.3091 42.5955 30.1232 44.6579L30.1233 44.6579L30.1183 44.6663C28.8875 46.7176 27.7589 48.667 26.9119 50.1429C26.6459 50.6063 26.4055 51.027 26.1977 51.3907C25.8113 52.0668 25.5373 52.5464 25.42 52.7387C25.4207 52.7486 25.4225 52.7633 25.4268 52.7837C25.4424 52.8575 25.4834 52.9655 25.5624 53.1025C25.7194 53.3747 25.9848 53.6891 26.3077 53.9663C26.5724 54.1864 26.7821 54.2869 26.9775 54.3182C27.1713 54.3492 27.4146 54.3222 27.7643 54.1692C28.4981 53.8482 29.5149 53.061 31.1713 51.6117C32.312 50.575 33.4553 49.6392 34.3835 48.9594C34.8472 48.6198 35.2649 48.3385 35.6062 48.1395C35.7764 48.0403 35.9366 47.9563 36.0798 47.8955C36.2068 47.8416 36.38 47.7792 36.5554 47.7792C36.8674 47.7792 37.0754 47.9942 37.1674 48.1012C37.2843 48.2371 37.3914 48.4128 37.4899 48.6019C37.6895 48.9851 37.9018 49.5183 38.1169 50.1508C38.5493 51.4216 39.0167 53.1636 39.4305 55.0775L39.4306 55.0775L39.4324 55.0866C40.3067 59.5098 41.0426 62.3575 41.8242 64.0944C42.2137 64.9599 42.596 65.5058 42.9754 65.8337C43.3389 66.1478 43.7177 66.2781 44.1605 66.2781C44.7418 66.2781 45.1358 66.118 45.4394 65.7731C45.7684 65.3994 46.0458 64.7481 46.2263 63.6464C46.5873 61.4429 46.5169 57.7534 46.1051 51.8329L46.1051 51.8326C45.899 48.8451 45.7954 46.1587 45.8084 44.2138C45.8148 43.2443 45.8503 42.4432 45.9198 41.8765C45.954 41.5979 45.9997 41.3467 46.0661 41.1533C46.0984 41.0594 46.1472 40.9434 46.2268 40.8413C46.3069 40.7386 46.4727 40.5852 46.7298 40.5852C46.879 40.5852 47.069 40.6341 47.2288 40.6799C47.413 40.7326 47.644 40.8081 47.9124 40.902C48.4504 41.09 49.1611 41.3595 49.9924 41.6881C51.6562 42.3459 53.8197 43.2474 56.0838 44.2251L56.0858 44.226C60.5647 46.1823 63.4648 47.2608 65.2323 47.5821C66.1306 47.7455 66.6211 47.6893 66.8682 47.5633C67.0411 47.4751 67.172 47.312 67.172 46.8636C67.172 46.4303 67.0879 46.0422 66.8553 45.616C66.6157 45.177 66.2081 44.6786 65.5282 44.0486C64.162 42.7827 61.8087 41.0847 57.8466 38.3575C55.9389 37.1199 54.2097 35.9069 52.954 34.9619C52.3265 34.4897 51.8111 34.0798 51.4492 33.7645C51.2697 33.6082 51.1183 33.4668 51.0079 33.3477C50.9537 33.2892 50.8985 33.2245 50.8535 33.1579C50.831 33.1245 50.8041 33.0805 50.7814 33.0286C50.7609 32.9819 50.7285 32.8947 50.7285 32.7839C50.7285 32.5956 50.8227 32.4678 50.8614 32.4203C50.9087 32.3623 50.9603 32.3197 50.9967 32.2922C51.0715 32.2356 51.1613 32.1843 51.2482 32.1392C51.4273 32.0462 51.676 31.9378 51.9762 31.8179C52.5808 31.5764 53.446 31.2676 54.5025 30.9133C56.6181 30.2038 59.5287 29.3024 62.719 28.3762L62.72 28.3759C68.4205 26.7325 72.4233 25.3793 74.9943 24.2141C76.2825 23.6303 77.181 23.1069 77.7497 22.6367C78.3276 22.1588 78.4755 21.8116 78.4768 21.5848C78.4717 21.5772 78.4536 21.5542 78.4054 21.521C78.2916 21.4428 78.077 21.3536 77.7217 21.28C77.018 21.1342 75.9389 21.0838 74.4989 21.1411C71.6317 21.2553 67.472 21.7898 62.3427 22.713C59.8683 23.177 57.5172 23.5389 55.7407 23.7334C54.8542 23.8305 54.0987 23.8872 53.5383 23.8922C53.2603 23.8947 53.0121 23.8848 52.813 23.8556C52.7142 23.8411 52.6095 23.8193 52.5121 23.7835C52.4331 23.7544 52.2993 23.6951 52.193 23.5699C52.1082 23.4751 52.065 23.3709 52.0415 23.294C52.0148 23.2065 52.0027 23.1184 51.9973 23.0398C51.9866 22.8831 51.9985 22.7042 52.0222 22.519C52.0701 22.1449 52.1769 21.6651 52.3276 21.121C52.6302 20.0291 53.1262 18.6207 53.7497 17.1655C54.8998 14.3794 55.5702 12.2563 55.8286 10.8021C55.9587 10.0698 55.9768 9.54657 55.9215 9.20738C55.8942 9.04013 55.8532 8.9443 55.8211 8.89448C55.7943 8.85294 55.7772 8.84703 55.77 8.84458L55.7697 8.84447C55.7321 8.83148 55.5546 8.81182 55.1483 9.04311C54.7657 9.26096 54.2779 9.64672 53.6883 10.2262C52.5133 11.3809 51.0068 13.2315 49.2178 15.8125C47.872 17.8309 46.5211 19.5729 45.4465 20.7523C44.9122 21.3387 44.4295 21.8047 44.039 22.0949C43.8491 22.236 43.645 22.3631 43.444 22.4269C43.2592 22.4856 42.896 22.5363 42.6393 22.2385C42.5221 22.1115 42.4328 21.9308 42.3666 21.7837C42.2856 21.6037 42.1981 21.376 42.1058 21.1123C41.9208 20.5836 41.7054 19.8781 41.4729 19.0514C41.0074 17.3962 40.4657 15.229 39.9505 12.9622L39.9505 12.9622L39.949 12.9551C38.9209 8.12318 38.0813 4.95549 37.2672 3.00156C36.8597 2.02371 36.4755 1.39241 36.1091 1.01102C35.7575 0.645111 35.438 0.522995 35.1166 0.522995C35.1155 0.522995 35.1157 0.521935 35.1142 0.522575C35.1128 0.523163 35.1099 0.5252 35.1033 0.53083C35.0778 0.552544 35.0215 0.615875 34.953 0.771271C34.8132 1.08844 34.6847 1.64204 34.583 2.53817C34.3813 4.31557 34.3037 7.24129 34.3037 11.8185V23.6373Z" stroke="black" stroke-width="1.04636"/>
</g>
<defs>
<filter id="filter0_d_1_1478" x="0" y="-0.000244141" width="79" height="70.8638" filterUnits="userSpaceOnUse" color-interpolation-filters="sRGB">
<feFlood flood-opacity="0" result="BackgroundImageFix"/>
<feColorMatrix in="SourceAlpha" type="matrix" values="0 0 0 0 0 0 0 0 0 0 0 0 0 0 0 0 0 0 127 0" result="hardAlpha"/>
<feOffset dy="4.06226"/>
<feComposite in2="hardAlpha" operator="out"/>
<feColorMatrix type="matrix" values="0 0 0 0 0.745098 0 0 0 0 0.74902 0 0 0 0 0.705882 0 0 0 1 0"/>
<feBlend mode="normal" in2="BackgroundImageFix" result="effect1_dropShadow_1_1478"/>
<feBlend mode="normal" in="SourceGraphic" in2="effect1_dropShadow_1_1478" result="shape"/>
</filter>
</defs>
</svg>
