<svg width="48" height="71" viewBox="0 0 48 71" fill="none" xmlns="http://www.w3.org/2000/svg">
<g id="Vector" filter="url(#filter0_d_1_1277)">
<path d="M2.78056 11.8188V23.6375L-3.38573 20.5544C-6.77719 18.91 -9.9631 17.4712 -10.5797 17.4712C-12.9435 17.4712 -11.2991 20.6571 -6.87996 24.5624C-3.69404 27.3373 -2.56356 28.8788 -3.4885 29.1872C-4.31067 29.4955 -10.3742 31.1398 -17.1571 32.7842C-29.798 35.8673 -32.3673 37.2033 -30.4146 39.156C-29.6952 39.8754 -24.7622 39.5671 -13.7656 37.9227C-5.13284 36.6895 2.16393 35.9701 2.47224 36.2784C2.78056 36.6895 1.03344 40.2865 -1.3303 44.3973C-3.79682 48.5082 -5.85224 52.208 -6.05779 52.5163C-6.26333 52.9274 -5.74947 53.7495 -5.03007 54.3662C-3.79682 55.3939 -2.7691 54.88 0.519587 52.0024C2.78056 49.947 5.04153 48.3026 5.55539 48.3026C6.06924 48.3026 7.09696 51.3858 7.91913 55.1883C9.66624 64.0267 10.8995 66.8015 13.1605 66.8015C15.9353 66.8015 16.4492 63.6156 15.627 51.7969C15.2159 45.8361 15.2159 41.1086 15.7298 41.1086C16.2436 41.1086 20.3545 42.753 24.8764 44.7056C33.8175 48.611 36.6951 49.1248 36.6951 46.8638C36.6951 44.8084 35.0508 43.3696 27.1374 37.9227C23.3349 35.4562 20.2517 33.0925 20.2517 32.7842C20.2517 32.4758 25.493 30.7287 31.8649 28.8788C43.2725 25.5902 48 23.432 48 21.5821C48 20.0405 41.5254 20.3488 31.2482 22.1987C26.3152 23.1236 21.896 23.6375 21.5877 23.2264C21.2794 22.9181 21.9988 20.246 23.2321 17.3684C27.8568 6.16635 24.9792 5.13863 17.7852 15.5186C15.1131 19.5266 12.4411 22.4042 12.03 21.8904C11.6189 21.4793 10.4884 17.3684 9.4607 12.8465C7.40527 3.18597 6.06924 6.10352e-05 4.11658 6.10352e-05C3.08887 6.10352e-05 2.78056 2.67212 2.78056 11.8188Z" fill="#F3ABCB"/>
<path d="M3.30374 23.6375V24.484L2.54659 24.1054L-3.61398 21.0251C-3.61492 21.0247 -3.61586 21.0242 -3.61681 21.0237C-5.3088 20.2034 -6.94483 19.4366 -8.23224 18.8758C-8.87704 18.5949 -9.42822 18.3684 -9.8524 18.213C-10.0649 18.1351 -10.2389 18.0776 -10.3731 18.0402C-10.4401 18.0216 -10.4924 18.0093 -10.5315 18.0019C-10.5735 17.994 -10.5867 17.9944 -10.5797 17.9944C-10.8231 17.9944 -10.9598 18.0364 -11.0289 18.0744C-11.0834 18.1043 -11.1054 18.1348 -11.1197 18.182C-11.1648 18.3308 -11.1339 18.6866 -10.8093 19.311C-10.186 20.5095 -8.72807 22.2308 -6.53506 24.169C-4.93998 25.5584 -3.82282 26.6694 -3.22076 27.4904C-2.92995 27.8869 -2.70207 28.2901 -2.66021 28.6669C-2.63734 28.8727 -2.66699 29.1004 -2.80268 29.3039C-2.93412 29.5011 -3.12528 29.6158 -3.31322 29.6802C-3.76856 29.8489 -5.51592 30.3429 -7.95321 30.9903C-10.4231 31.6464 -13.6381 32.4694 -17.0331 33.2924C-23.3675 34.8374 -27.1113 35.9302 -29.0294 36.8644C-29.5037 37.0954 -29.8448 37.3067 -30.079 37.499C-30.3147 37.6926 -30.4146 37.8444 -30.4532 37.9498C-30.5067 38.0963 -30.4965 38.3343 -30.0447 38.786C-30.0457 38.7851 -30.0462 38.7845 -30.0461 38.7845C-30.0456 38.7838 -29.9924 38.8248 -29.8149 38.8699C-29.6333 38.916 -29.3741 38.9537 -29.0231 38.9759C-28.3223 39.0203 -27.3218 38.9997 -25.9813 38.9039C-23.3044 38.7127 -19.3382 38.227 -13.843 37.4053L-13.8396 37.4048C-9.51779 36.7874 -5.52797 36.2983 -2.5773 36.0019C-1.10302 35.8538 0.117668 35.7533 0.99272 35.7093C1.42864 35.6874 1.78904 35.6789 2.05588 35.687C2.18768 35.691 2.31101 35.6993 2.41496 35.7156C2.46645 35.7237 2.5269 35.7358 2.58731 35.7558C2.63491 35.7715 2.74526 35.8115 2.84219 35.9084L2.86848 35.9347L2.89079 35.9645C2.99638 36.1053 3.02134 36.2592 3.02817 36.3549C3.03559 36.4589 3.02599 36.5634 3.01117 36.6578C2.9814 36.8474 2.91813 37.0708 2.8355 37.3119C2.66871 37.7986 2.39567 38.4358 2.04581 39.1744C1.3441 40.6558 0.309099 42.5958 -0.876755 44.6581L-0.876677 44.6582L-0.88168 44.6665C-2.11246 46.7178 -3.24107 48.6672 -4.08815 50.1432C-4.35409 50.6066 -4.59447 51.0272 -4.80234 51.391C-5.18865 52.067 -5.4627 52.5466 -5.57996 52.7389C-5.57928 52.7488 -5.5775 52.7636 -5.57319 52.784C-5.55761 52.8578 -5.51661 52.9658 -5.43761 53.1027C-5.28058 53.3749 -5.01522 53.6893 -4.69234 53.9666C-4.42763 54.1867 -4.21791 54.2872 -4.02247 54.3185C-3.82871 54.3495 -3.58541 54.3225 -3.23573 54.1695C-2.50189 53.8484 -1.48511 53.0612 0.171331 51.612C1.31201 50.5752 2.4553 49.6395 3.38353 48.9597C3.84718 48.6201 4.26485 48.3387 4.60624 48.1397C4.77636 48.0405 4.93657 47.9565 5.07983 47.8957C5.2068 47.8418 5.38004 47.7795 5.55539 47.7795C5.86737 47.7795 6.07542 47.9944 6.16744 48.1014C6.28431 48.2373 6.39143 48.413 6.48992 48.6022C6.68945 48.9853 6.90176 49.5185 7.11694 50.151C7.54929 51.4219 8.01668 53.1639 8.4305 55.0778L8.43058 55.0778L8.43238 55.0869C9.30672 59.51 10.0426 62.3577 10.8242 64.0946C11.2137 64.9602 11.596 65.5061 11.9754 65.834C12.3389 66.148 12.7177 66.2783 13.1605 66.2783C13.7418 66.2783 14.1358 66.1182 14.4394 65.7733C14.7684 65.3997 15.0458 64.7484 15.2263 63.6466C15.5873 61.4432 15.5169 57.7537 15.1051 51.8332L15.1051 51.8329C14.899 48.8453 14.7954 46.159 14.8084 44.214C14.8148 43.2446 14.8503 42.4434 14.9198 41.8767C14.954 41.5981 14.9997 41.3469 15.0661 41.1535C15.0984 41.0596 15.1472 40.9436 15.2268 40.8415C15.3069 40.7388 15.4727 40.5855 15.7298 40.5855C15.879 40.5855 16.069 40.6344 16.2288 40.6801C16.413 40.7329 16.644 40.8084 16.9124 40.9022C17.4504 41.0902 18.1611 41.3597 18.9924 41.6884C20.6562 42.3461 22.8197 43.2476 25.0838 44.2253L25.0858 44.2262C29.5647 46.1825 32.4648 47.261 34.2323 47.5824C35.1306 47.7457 35.6211 47.6895 35.8682 47.5636C36.0411 47.4754 36.172 47.3122 36.172 46.8638C36.172 46.4305 36.0879 46.0425 35.8553 45.6163C35.6157 45.1772 35.2081 44.6789 34.5282 44.0488C33.162 42.7829 30.8087 41.085 26.8466 38.3577C24.9389 37.1201 23.2097 35.9072 21.954 34.9621C21.3265 34.4899 20.8111 34.08 20.4492 33.7648C20.2697 33.6084 20.1183 33.467 20.0079 33.348C19.9537 33.2895 19.8985 33.2248 19.8535 33.1582C19.831 33.1248 19.8041 33.0807 19.7814 33.0288C19.7609 32.9821 19.7285 32.895 19.7285 32.7842C19.7285 32.5958 19.8227 32.468 19.8614 32.4205C19.9087 32.3625 19.9603 32.3199 19.9967 32.2924C20.0715 32.2359 20.1613 32.1846 20.2482 32.1394C20.4273 32.0464 20.676 31.9381 20.9762 31.8182C21.5808 31.5766 22.446 31.2679 23.5025 30.9136C25.6181 30.2041 28.5287 29.3026 31.719 28.3764L31.72 28.3761C37.4205 26.7327 41.4233 25.3796 43.9943 24.2144C45.2825 23.6306 46.181 23.1072 46.7497 22.6369C47.3276 22.159 47.4755 21.8118 47.4768 21.585C47.4717 21.5775 47.4536 21.5544 47.4054 21.5212C47.2916 21.443 47.077 21.3538 46.7217 21.2802C46.018 21.1345 44.9389 21.084 43.4989 21.1413C40.6317 21.2555 36.472 21.7901 31.3427 22.7133C28.8683 23.1772 26.5172 23.5391 24.7407 23.7336C23.8542 23.8307 23.0987 23.8874 22.5383 23.8925C22.2603 23.895 22.0121 23.8851 21.813 23.8558C21.7142 23.8413 21.6095 23.8196 21.5121 23.7837C21.4331 23.7547 21.2993 23.6953 21.193 23.5702C21.1082 23.4753 21.065 23.3712 21.0415 23.2943C21.0148 23.2068 21.0027 23.1186 20.9973 23.04C20.9866 22.8834 20.9985 22.7045 21.0222 22.5193C21.0701 22.1452 21.1769 21.6653 21.3276 21.1212C21.6302 20.0294 22.1262 18.621 22.7497 17.1657C23.8998 14.3797 24.5702 12.2565 24.8286 10.8023C24.9587 10.0701 24.9768 9.54681 24.9215 9.20763C24.8942 9.04037 24.8532 8.94454 24.8211 8.89473C24.7943 8.85319 24.7772 8.84728 24.77 8.84482L24.7697 8.84471C24.7321 8.83172 24.5546 8.81206 24.1483 9.04336C23.7657 9.2612 23.2779 9.64697 22.6883 10.2264C21.5133 11.3812 20.0068 13.2318 18.2178 15.8128C16.872 17.8312 15.5211 19.5731 14.4465 20.7526C13.9122 21.339 13.4295 21.8049 13.039 22.0951C12.8491 22.2362 12.645 22.3634 12.444 22.4272C12.2592 22.4858 11.896 22.5366 11.6393 22.2388C11.5221 22.1117 11.4328 21.931 11.3666 21.7839C11.2856 21.6039 11.1981 21.3762 11.1058 21.1126C10.9208 20.5839 10.7054 19.8783 10.4729 19.0517C10.0074 17.3964 9.46571 15.2292 8.95053 12.9624L8.95049 12.9625L8.94898 12.9554C7.9209 8.12342 7.08131 4.95574 6.26717 3.0018C5.85973 2.02396 5.47546 1.39265 5.10906 1.01126C4.75753 0.645355 4.43805 0.523239 4.11658 0.523239C4.11554 0.523239 4.11572 0.522179 4.11419 0.52282C4.11277 0.523407 4.10991 0.525444 4.10329 0.531075C4.0778 0.552788 4.0215 0.616119 3.953 0.771515C3.81318 1.08868 3.68471 1.64229 3.58302 2.53841C3.38133 4.31582 3.30374 7.24154 3.30374 11.8188V23.6375Z" stroke="black" stroke-width="1.04636"/>
</g>
<defs>
<filter id="filter0_d_1_1277" x="-31" y="6.10352e-05" width="79" height="70.8637" filterUnits="userSpaceOnUse" color-interpolation-filters="sRGB">
<feFlood flood-opacity="0" result="BackgroundImageFix"/>
<feColorMatrix in="SourceAlpha" type="matrix" values="0 0 0 0 0 0 0 0 0 0 0 0 0 0 0 0 0 0 127 0" result="hardAlpha"/>
<feOffset dy="4.06226"/>
<feComposite in2="hardAlpha" operator="out"/>
<feColorMatrix type="matrix" values="0 0 0 0 0.745098 0 0 0 0 0.74902 0 0 0 0 0.705882 0 0 0 1 0"/>
<feBlend mode="normal" in2="BackgroundImageFix" result="effect1_dropShadow_1_1277"/>
<feBlend mode="normal" in="SourceGraphic" in2="effect1_dropShadow_1_1277" result="shape"/>
</filter>
</defs>
</svg>
