<svg width="31" height="31" viewBox="0 0 31 31" fill="none" xmlns="http://www.w3.org/2000/svg">
<path id="Vector" d="M15.7866 30.6757C16.7755 30.6757 17.5858 29.9478 17.7231 28.9177C19.0827 19.7436 20.3325 18.4663 29.1497 17.4638C30.1659 17.3402 30.9487 16.4887 30.9487 15.4999C30.9487 14.4972 30.1797 13.6732 29.1633 13.5222C20.4012 12.2998 19.3163 11.2286 17.7231 2.06824C17.5445 1.05192 16.7617 0.323975 15.7866 0.323975C14.7841 0.323975 13.9874 1.05192 13.8227 2.0819C12.4906 11.2424 11.2408 12.5196 2.43735 13.5222C1.39358 13.6596 0.624512 14.4836 0.624512 15.4999C0.624512 16.4887 1.36612 17.3127 2.4099 17.4638C11.1857 18.7136 12.257 19.771 13.8227 28.9315C14.0287 29.9615 14.8252 30.6757 15.7866 30.6757Z" fill="#0C0C0C"/>
</svg>
